<?xml version="1.0" encoding="utf-8"?>
<!-- Generator: Adobe Illustrator 22.1.0, SVG Export Plug-In . SVG Version: 6.00 Build 0)  -->
<svg version="1.1" id="Layer_1" xmlns="http://www.w3.org/2000/svg" xmlns:xlink="http://www.w3.org/1999/xlink" x="0px" y="0px"
	 viewBox="0 0 588.4 562.4" style="enable-background:new 0 0 588.4 562.4;" xml:space="preserve">
<style type="text/css">
	.st0{fill:#e0e0e0;stroke:#000000;stroke-width:5;}
</style>
<g id="BOX">
	<rect id="BOX_1_" x="79" y="66" class="st0" width="430.4" height="430.4"/>
</g>
<g id="LEE">
	<path id="L_1_" d="M178.1,279.3h59v18h-81.6v-130h22.6V279.3z"/>
	<path id="E_1_" d="M330.4,239.3H277v40h62.4v18h-85v-130h84.4v18.2H277v35.9h53.4V239.3z"/>
	<path id="E" d="M433.8,239.3h-53.4v40h62.4v18h-85v-130h84.4v18.2h-61.8v35.9h53.4V239.3z"/>
</g>
<g id="LIANG">
	<path id="L" d="M175.3,392h33.4v7.6h-42.7v-70.4h9.3V392z"/>
	<path id="I" d="M229.2,399.6h-9.3v-70.4h9.3V399.6z"/>
	<path id="A" d="M285,381.1h-29.5l-6.6,18.4h-9.6l26.9-70.4h8.1l26.9,70.4h-9.5L285,381.1z M258.3,373.5h23.9l-12-32.9L258.3,373.5z
		"/>
	<path id="N" d="M364.9,399.6h-9.3l-35.4-54.3v54.3h-9.3v-70.4h9.3l35.5,54.5v-54.5h9.2V399.6z"/>
	<path id="G" d="M433.3,390.3c-2.4,3.4-5.7,6-10,7.7s-9.2,2.5-14.9,2.5c-5.7,0-10.8-1.3-15.3-4c-4.4-2.7-7.9-6.5-10.3-11.5
		c-2.4-5-3.7-10.7-3.7-17.3v-6.1c0-10.6,2.5-18.8,7.4-24.7c4.9-5.8,11.9-8.8,20.9-8.8c7.3,0,13.3,1.9,17.7,5.6
		c4.5,3.8,7.2,9.1,8.2,16H424c-1.7-9.3-7.3-14-16.6-14c-6.2,0-10.9,2.2-14.1,6.6c-3.2,4.4-4.8,10.7-4.9,19v5.8
		c0,7.9,1.8,14.2,5.4,18.8c3.6,4.7,8.5,7,14.7,7c3.5,0,6.5-0.4,9.1-1.2c2.6-0.8,4.8-2.1,6.5-3.9v-15.8h-16.3v-7.6h25.5V390.3z"/>
</g>
</svg>
